# xmcd
#
# Track frame offsets:
#        150
#        17400
#        31425
#        47025
#        69750
#        85650
#        101400
#        115275
#        126975
#        144225
#        158250
#        173850
#        196575
#        212475
#        228225
#        242100
#
# Disc length: 3384 seconds
#
# Revision: 0
# Processed by: cddbd v1.5.2PL0 Copyright (c) Steve Scherf et al.
# Submitted via: CDGFix 3.3h
#
DISCID=bd0d3610
DTITLE=Various Artist - SYB1627
DYEAR=1900
DGENRE=Karaoke
TTITLE0=Campbell, Glen - Rhinestone Cowboy
TTITLE1=Denver, John - Thank God I'm A Country Boy
TTITLE2=Lynn, Loretta - Coal Miner's Daughter
TTITLE3=Rogers, Kenny - Through The Years
TTITLE4=Davis, Mac - Baby Don't Get Hooked On Me
TTITLE5=Newton-John, Olivia - If You Love Me (Let Me Know)
TTITLE6=Rich, Charlie - Most Beautiful Girl, The
TTITLE7=Murray, Anne - Snowbird
TTITLE8=Campbell, Glen - Rhinestone Cowboy w/vocal
TTITLE9=Denver, John - Thank God I'm A Country Boy w/vocal
TTITLE10=Lynn, Loretta - Coal Miner's Daughter w/vocal
TTITLE11=Rogers, Kenny - Through The Years w/vocal
TTITLE12=Davis, Mac - Baby Don't Get Hooked On Me w/vocal
TTITLE13=Newton-John, Olivia - If You Love Me (Let Me Know) w/vocal
TTITLE14=Rich, Charlie - Most Beautiful Girl, The w/vocal
TTITLE15=Murray, Anne - Snowbird w/vocal
EXTD=
EXTT0=
EXTT1=
EXTT2=
EXTT3=
EXTT4=
EXTT5=
EXTT6=
EXTT7=
EXTT8=
EXTT9=
EXTT10=
EXTT11=
EXTT12=
EXTT13=
EXTT14=
EXTT15=
PLAYORDER=
